<svg width="80" height="80" viewBox="0 0 80 80" fill="none" xmlns="http://www.w3.org/2000/svg">
<g clip-path="url(#clip0)">
<path d="M78.4246 24.9573H19.7814L77.3553 13.8269C77.7654 13.7476 78.128 13.5083 78.3618 13.1623C78.5961 12.8156 78.6828 12.3908 78.6029 11.98L76.8633 2.99564C76.6973 2.14115 75.8709 1.58207 75.017 1.74808L58.518 4.93717C58.4838 4.94266 58.449 4.94877 58.4149 4.9567L8.53999 14.5972C8.5345 14.5984 8.52961 14.599 8.52412 14.6003L1.2768 16.001C0.866038 16.081 0.5041 16.3196 0.270335 16.6663C0.0359601 17.0124 -0.0507099 17.4378 0.0286359 17.8479L1.74006 26.684V76.7072C1.74006 77.5776 2.44563 78.2831 3.31599 78.2831H33.4008C34.2712 78.2831 34.9768 77.5776 34.9768 76.7072C34.9768 75.8374 34.2712 75.1319 33.4008 75.1319H4.89131V37.2614H11.8865C11.8878 37.2614 11.8896 37.262 11.8908 37.262C11.8914 37.262 11.892 37.2614 11.8933 37.2614H24.5935C24.5947 37.2614 24.5965 37.262 24.5977 37.262C24.5983 37.262 24.5996 37.2614 24.6002 37.2614H37.3052C37.3065 37.2614 37.3077 37.262 37.3089 37.262C37.3101 37.262 37.3107 37.2614 37.312 37.2614H50.0122C50.0134 37.2614 50.0146 37.262 50.0158 37.262C50.017 37.262 50.0176 37.2614 50.0189 37.2614H62.7191C62.7203 37.2614 62.7215 37.262 62.7227 37.262C62.7239 37.262 62.7246 37.2614 62.7258 37.2614H76.8487V75.1319H47.5866C46.7163 75.1319 46.0107 75.8374 46.0107 76.7072C46.0107 77.5776 46.7163 78.2831 47.5866 78.2831H78.4246C79.2944 78.2831 79.9999 77.5776 79.9999 76.7072V26.5332C79.9999 25.6629 79.2944 24.9573 78.4246 24.9573ZM53.1707 34.1101L57.6763 28.1086H66.4422L61.9366 34.1101H53.1707ZM40.4626 34.1101L44.9652 28.1086H53.7353L49.2297 34.1101H40.4626ZM27.752 34.1101L32.2576 28.1086H41.0253L36.5228 34.1101H27.752ZM15.0451 34.1101L19.5507 28.1086H28.3172L23.8116 34.1101H15.0451ZM4.89131 26.5332C4.89131 25.6458 5.61457 24.9237 6.50386 24.9237C7.39253 24.9237 8.11579 25.6458 8.11579 26.5332C8.11579 27.4207 7.39253 28.1427 6.50386 28.1427C5.61457 28.1427 4.89131 27.4207 4.89131 26.5332ZM20.9466 15.409L27.2485 20.304L18.8818 21.9214L12.583 17.0258L20.9466 15.409ZM33.4228 12.9975L39.7241 17.8919L31.3623 19.5087L25.0604 14.6137L33.4228 12.9975ZM45.899 10.586L52.1997 15.4804L43.8378 17.0966L37.5366 12.2028L45.899 10.586ZM58.3795 8.17386L64.6765 13.0683L56.3134 14.6851L50.0128 9.79069L58.3795 8.17386ZM75.2093 11.0321L68.789 12.273L62.492 7.37858L74.0686 5.14103L75.2093 11.0321ZM8.47041 17.8205L14.7698 22.7167L10.2447 23.5913C9.3719 22.4848 8.01997 21.7725 6.50386 21.7725C5.63655 21.7725 4.82417 22.0063 4.12287 22.4121L3.4228 18.7964L8.47041 17.8205ZM4.89131 31.0126C5.39546 31.1945 5.93806 31.294 6.50386 31.294C8.57783 31.294 10.3454 29.9616 10.9979 28.1086H15.6103L11.1047 34.1101H4.89131V31.0126ZM65.8776 34.1101L70.3832 28.1086H76.8487V34.1101H65.8776Z" fill="white"/>
<path d="M70.4901 54.0405C71.3604 54.0405 72.066 53.3356 72.066 52.4652V46.0199C72.066 45.1496 71.3604 44.444 70.4901 44.444H10.3643C9.49399 44.444 8.78842 45.1496 8.78842 46.0199V52.4652C8.78842 53.3356 9.49399 54.0405 10.3643 54.0405H70.4901ZM68.9148 50.8893H51.3849V47.5952H68.9148V50.8893ZM48.2336 50.8893H30.0177V47.5952H48.2336V50.8893ZM11.9403 47.5952H26.8664V50.8893H11.9403V47.5952Z" fill="white"/>
<path d="M70.431 70C71.2975 70 72 69.2655 72 68.3585V61.6422C72 60.7352 71.2975 60 70.431 60H10.569C9.70247 60 9 60.7352 9 61.6422V68.3585C9 69.2655 9.70247 70 10.569 70H70.431ZM68.8626 66.7163H51.4096V63.2837H68.8626V66.7163ZM48.2721 66.7163H30.1362V63.2837H48.2721V66.7163ZM12.138 63.2837H26.9987V66.7163H12.138V63.2837Z" fill="white"/>
<path d="M40.5511 75.1317H40.5249C39.6545 75.1317 38.9489 75.8367 38.9489 76.7071C38.9489 77.5774 39.6545 78.283 40.5249 78.283H40.5511C41.4215 78.283 42.127 77.5774 42.127 76.7071C42.127 75.8367 41.4215 75.1317 40.5511 75.1317Z" fill="white"/>
</g>
<defs>
<clipPath id="clip0">
<rect width="80" height="80" fill="white"/>
</clipPath>
</defs>
</svg>
